<?xml version="1.0" encoding="UTF-8" standalone="no" ?>
<!DOCTYPE svg PUBLIC "-//W3C//DTD SVG 1.1//EN" "http://www.w3.org/Graphics/SVG/1.1/DTD/svg11.dtd">
<svg xmlns="http://www.w3.org/2000/svg" xmlns:xlink="http://www.w3.org/1999/xlink" version="1.1" width="500" height="500" viewBox="0 0 500 500" xml:space="preserve">
<desc>Created with Fabric.js 4.6.0</desc>
<defs>
</defs>
<g transform="matrix(7.1 0 0 7.1 248.85 208.93)" id="0ktutG-DcI8Zt18000MzV"  >
<path style="stroke: none; stroke-width: 1; stroke-dasharray: none; stroke-linecap: butt; stroke-dashoffset: 0; stroke-linejoin: miter; stroke-miterlimit: 4; fill: rgb(5,138,174); fill-rule: evenodd; opacity: 1;" vector-effect="non-scaling-stroke"  transform=" translate(-31.7, -28.79)" d="M 15.97 23.88 C 16.54 24.96 16.53 26.669999999999998 18.57 28.32 C 22.95 31.86 28.58 30.21 30.61 26.45 C 30.88 25.95 31.54 24.07 31.689999999999998 23.869999999999997 C 32.29 24.909999999999997 32.26 26.439999999999998 34.32 28.31 C 38.52 32.1 45.88 30.43 47.38 23.849999999999998 L 47.79 24.729999999999997 C 48.3 26.389999999999997 49.05 27.449999999999996 50.42 28.599999999999998 C 55.6 32.949999999999996 64.37 28.52 63.19 21.069999999999997 C 63.04 20.109999999999996 61.11 14.459999999999997 60.68 13.059999999999997 C 59.89 10.499999999999996 58.92 7.709999999999997 58.16 5.139999999999997 C 57.36 2.479999999999997 56.699999999999996 0.06999999999999673 52.709999999999994 0.029999999999996696 C 45.71999999999999 -0.04000000000000331 38.69 0.029999999999996696 31.689999999999994 0.029999999999996696 C 24.68999999999999 0.029999999999996696 17.679999999999993 -3.3029134982598407e-15 10.669999999999995 0.029999999999996696 C 9.189999999999994 0.0399999999999967 7.689999999999994 0.5899999999999967 6.889999999999995 1.3899999999999968 C 5.909999999999995 2.389999999999997 5.679999999999995 3.6099999999999968 5.239999999999995 5.009999999999997 C 4.409999999999995 7.709999999999997 3.559999999999995 10.329999999999998 2.689999999999995 13.029999999999998 C 2.229999999999995 14.439999999999998 0.38999999999999524 19.939999999999998 0.20999999999999508 21.019999999999996 C -0.830000000000005 27.439999999999998 5.6299999999999955 32.08 11.169999999999996 29.65 C 13.209999999999997 28.759999999999998 14.939999999999996 26.909999999999997 15.569999999999997 24.83 C 15.739999999999997 24.25 15.669999999999996 24.15 15.969999999999997 23.88 z M 8.38 33.019999999999996 L 5.860000000000001 32.94 L 5.830000000000001 49.91 C 5.810000000000001 54.419999999999995 8.950000000000001 57.56999999999999 13.39 57.58 C 25.35 57.58 38.28 57.48 50.4 57.589999999999996 C 53.839999999999996 57.62 57.519999999999996 54.599999999999994 57.519999999999996 50.449999999999996 L 57.529999999999994 32.92999999999999 C 56.959999999999994 32.86999999999999 55.38999999999999 33.03999999999999 54.599999999999994 33.019999999999996 C 53.339999999999996 32.989999999999995 52.769999999999996 32.589999999999996 51.709999999999994 32.51 L 51.699999999999996 49.5 C 51.699999999999996 52.1 50.72 51.6 48.49999999999999 51.6 C 38.059999999999995 51.6 27.619999999999994 51.550000000000004 17.189999999999994 51.690000000000005 L 13.659999999999995 51.67 C 11.199999999999996 51.67 11.629999999999995 50.47 11.619999999999994 47.33 L 11.649999999999993 32.53 C 10.639999999999993 32.52 9.829999999999993 33.02 8.379999999999994 33.02 z" stroke-linecap="round" />
</g>
<g transform="matrix(1.51 0 0 1.51 274.85 457.72)" style="" id="tdUW9HwUpN8ehMw8hHtB6"  >
		<text xml:space="preserve" font-family="Amethysta" font-size="45" font-style="normal" font-weight="normal" line-height="1.16" style="stroke: none; stroke-width: 1; stroke-dasharray: none; stroke-linecap: butt; stroke-dashoffset: 0; stroke-linejoin: miter; stroke-miterlimit: 4; fill: rgb(5,138,174); fill-rule: nonzero; opacity: 1; white-space: pre;" ><tspan x="-132.15" y="14.14" >VinciMarket</tspan></text>
</g>
</svg>